HIERARCHY
ROOT Hips
{
  OFFSET 0.000000 0.000000 0.000000
  CHANNELS 6 Xposition Yposition Zposition Xrotation Yrotation Zrotation
  JOINT Spine
  {
    OFFSET 0.762862 -23.197727 -6.058858
    CHANNELS 3 Xrotation Yrotation Zrotation
    JOINT Chest
    {
      OFFSET 0.762862 -23.197727 -6.058858
      CHANNELS 3 Xrotation Yrotation Zrotation
      JOINT Neck
      {
        OFFSET -0.540149 -18.459645 -7.594813
        CHANNELS 3 Xrotation Yrotation Zrotation
        JOINT Head
        {
          OFFSET 1.486077 2.397645 -12.425186
          CHANNELS 3 Xrotation Yrotation Zrotation
          End Site
          {
            OFFSET 0.0 5.0 2.0
          }
        }
      }
      JOINT LeftShoulder
      {
        OFFSET 17.595006 -0.044015 0.996102
        CHANNELS 3 Xrotation Yrotation Zrotation
        JOINT LeftArm
        {
          OFFSET 3.473531 23.049457 3.982832
          CHANNELS 3 Xrotation Yrotation Zrotation
          JOINT LeftForeArm
          {
            OFFSET 3.218371 22.980839 -10.241008
            CHANNELS 3 Xrotation Yrotation Zrotation
            JOINT LeftHand
            {
              OFFSET -0.425643 6.585190 -3.413291
              CHANNELS 3 Xrotation Yrotation Zrotation
              End Site
              {
                OFFSET -3.0 0.0 2.0
              }
            }
          }
        }
      }
      JOINT RightShoulder
      {
        OFFSET -17.595006 0.044015 -0.996102
        CHANNELS 3 Xrotation Yrotation Zrotation
        JOINT RightArm
        {
          OFFSET -5.553442 24.118242 6.751946
          CHANNELS 3 Xrotation Yrotation Zrotation
          JOINT RightForeArm
          {
            OFFSET -3.099014 24.977112 -8.059516
            CHANNELS 3 Xrotation Yrotation Zrotation
            JOINT RightHand
            {
              OFFSET 0.761311 6.389460 -3.213455
              CHANNELS 3 Xrotation Yrotation Zrotation
              End Site
              {
                OFFSET 3.0 0.0 2.0
              }
            }
          }
        }
      }
    }
  }
  JOINT LeftUpLeg
  {
    OFFSET 11.990773 0.614304 0.788698
    CHANNELS 3 Xrotation Yrotation Zrotation
    JOINT LeftLeg
    {
      OFFSET -5.144974 41.347031 2.000000
      CHANNELS 3 Xrotation Yrotation Zrotation
      JOINT LeftFoot
      {
        OFFSET 1.348836 29.942834 21.947497
        CHANNELS 3 Xrotation Yrotation Zrotation
        JOINT LeftToeBase
        {
          OFFSET 3.498804 11.595297 -10.821160
          CHANNELS 3 Xrotation Yrotation Zrotation
          End Site
          {
            OFFSET 0.0 -1.0 3.0
          }
        }
      }
    }
  }
  JOINT RightUpLeg
  {
    OFFSET -11.990773 -0.614304 -0.788698
    CHANNELS 3 Xrotation Yrotation Zrotation
    JOINT RightLeg
    {
      OFFSET 0.284998 37.357294 5.081156
      CHANNELS 3 Xrotation Yrotation Zrotation
      JOINT RightFoot
      {
        OFFSET 4.085786 23.068225 32.169547
        CHANNELS 3 Xrotation Yrotation Zrotation
        JOINT RightToeBase
        {
          OFFSET 1.209955 10.990363 -7.247832
          CHANNELS 3 Xrotation Yrotation Zrotation
          End Site
          {
            OFFSET 0.0 -1.0 3.0
          }
        }
      }
    }
  }
}
MOTION
Frames: 7
Frame Time: 0.041667
0.000000 0.000000 0.000000 -0.169652 4.091177 -1.348480 -8.920819 -0.334738 0.260004 0.070841 2.686851 -1.930591 0.767721 3.841186 0.856720 0.000000 0.000000 0.000000 -7.040757 1.981289 -8.635329 -7.381146 5.868701 9.008558 -4.133917 8.976566 16.440539 0.000000 0.000000 0.000000 -7.797616 -1.431033 -1.626490 -2.044454 -0.984709 -2.123306 3.243616 -0.812978 -0.924445 0.000000 0.000000 0.000000 -1.874897 -0.222029 -0.349928 2.853091 3.388197 -4.565512 92.384829 -16.603495 -19.754452 0.000000 0.000000 0.000000 -9.303266 0.284915 -3.969385 -29.520278 2.136858 2.150068 89.939675 -8.550690 4.621219 0.000000 0.000000 0.000000
0.000000 0.000000 0.000000 -0.104948 3.082834 -1.370744 -10.081660 -0.432891 0.639100 0.071221 2.870656 -2.026008 -0.303404 3.474144 0.622527 0.000000 0.000000 0.000000 -7.935026 2.154263 -9.743621 -9.006308 7.395065 10.991859 -5.176674 11.632585 20.835676 0.000000 0.000000 0.000000 -6.472275 -1.223774 -1.125524 -2.802132 -1.118843 -2.188098 2.273478 -0.254392 0.028978 0.000000 0.000000 0.000000 -4.077936 -0.503839 -0.240350 0.303259 3.561868 -4.859030 96.040684 -16.329345 -22.013985 0.000000 0.000000 0.000000 -11.777798 0.212820 -3.822315 -31.756293 1.697659 3.071044 94.137113 -7.749885 -0.702605 0.000000 0.000000 0.000000
0.000000 0.000000 0.000000 -0.045932 2.194470 -1.428305 -9.790863 -0.433960 0.689296 0.082146 2.930483 -2.406661 -1.516906 3.479167 0.441328 0.000000 0.000000 0.000000 -8.003488 2.280831 -10.990316 -9.216213 8.266699 12.424473 -5.705212 13.149796 23.279848 0.000000 0.000000 0.000000 -6.124930 -1.203710 -0.847548 -3.057100 -0.778076 -1.119290 1.714472 0.924438 2.322536 0.000000 0.000000 0.000000 -5.844520 -0.726563 -0.138158 0.464472 3.631676 -4.949336 97.243349 -16.137688 -23.356391 0.000000 0.000000 0.000000 -12.755836 0.185755 -3.749400 -31.317047 1.360573 3.412834 94.422947 -7.197663 -3.008419 0.000000 0.000000 0.000000
0.000000 0.000000 0.000000 -0.046721 2.212811 -1.436528 -10.901584 -0.453718 0.636600 0.066351 4.091243 -2.678735 -2.717304 3.704442 0.299605 0.000000 0.000000 0.000000 -10.184935 2.450136 -11.757744 -11.849276 9.723634 13.531342 -6.586216 14.568834 25.365026 0.000000 0.000000 0.000000 -7.092559 -1.473304 -0.633740 -3.772807 -0.859999 -1.073045 0.915499 0.880935 2.003552 0.000000 0.000000 0.000000 -5.786694 -0.718783 0.042171 -0.477804 3.096463 -4.238295 100.005939 -16.671694 -18.800913 0.000000 0.000000 0.000000 -11.019864 0.228948 -3.732544 -30.771355 1.342874 3.334601 93.019471 -7.182837 -2.754895 0.000000 0.000000 0.000000
0.000000 0.000000 0.000000 -0.029164 1.927442 -1.422530 -12.004143 -0.460575 0.493974 0.064853 4.321495 -2.854033 -4.259710 3.359708 0.013663 0.000000 0.000000 0.000000 -12.756321 2.563811 -11.814551 -14.747857 10.644776 13.511354 -8.303106 15.904602 26.893817 0.000000 0.000000 0.000000 -7.197958 -1.836641 0.982161 -3.787383 -1.441170 -2.674528 0.439759 0.707895 1.523768 0.000000 0.000000 0.000000 -6.707760 -0.826815 0.579930 -2.975527 2.430147 -3.317116 105.167646 -16.830613 -17.925817 0.000000 0.000000 0.000000 -11.726177 0.176855 -2.687605 -33.239671 0.503136 4.877693 93.654604 -6.896786 -4.085089 0.000000 0.000000 0.000000
0.000000 0.000000 0.000000 -0.019461 1.762316 -1.406092 -13.783193 -0.425013 -0.121475 0.077110 4.205799 -3.338275 -4.671177 1.136739 -0.382531 0.000000 0.000000 0.000000 -16.823420 2.749767 -12.480852 -16.809657 11.999758 14.523894 -8.474064 16.409356 27.639976 0.000000 0.000000 0.000000 -7.588816 -2.149756 2.101793 -3.950881 -1.516243 -2.811678 -0.325061 1.028064 1.948948 0.000000 0.000000 0.000000 -8.494861 -1.015487 1.475065 -6.858742 1.303589 -1.563479 107.380000 -16.953601 -17.399603 0.000000 0.000000 0.000000 -12.678499 0.130449 -1.416881 -35.800669 1.255508 4.424228 94.219876 -6.960225 -3.927127 0.000000 0.000000 0.000000
0.000000 0.000000 0.000000 -0.004923 1.523526 -1.393645 -14.048546 -0.326664 -0.922124 0.081796 4.114237 -3.446322 -5.328653 -0.188339 -0.659556 0.000000 0.000000 0.000000 -17.226091 2.781241 -13.459759 -17.005617 12.792291 15.603829 -8.494311 16.864312 28.364986 0.000000 0.000000 0.000000 -6.080094 -1.689533 1.402787 -3.542912 -1.495061 -2.928514 -0.449330 1.325361 2.497032 0.000000 0.000000 0.000000 -9.874646 -1.132266 2.414159 -6.817671 0.898856 -0.936954 106.427176 -17.221056 -15.977786 0.000000 0.000000 0.000000 -13.684426 0.109035 -0.369428 -33.136350 0.639744 4.680702 97.991981 -6.892836 -4.771833 0.000000 0.000000 0.000000
